0
SECTION
2
HEADER
9
$INSUNITS
70
4
9
$ACADVER
1
AC1014
9
$HANDSEED
5
FFFF
0
ENDSEC
0
SECTION
2
TABLES
0
TABLE
2
VPORT
5
8
100
AcDbSymbolTable
0
ENDTAB
0
TABLE
2
LTYPE
5
5
100
AcDbSymbolTable
0
LTYPE
5
14
100
AcDbSymbolTableRecord
100
AcDbLinetypeTableRecord
2
BYBLOCK
70
0
0
LTYPE
5
15
100
AcDbSymbolTableRecord
100
AcDbLinetypeTableRecord
2
BYLAYER
70
0
0
ENDTAB
0
TABLE
2
LAYER
5
2
100
AcDbSymbolTable
70
2
0
LAYER
5
50
100
AcDbSymbolTableRecord
100
AcDbLayerTableRecord
2
0
70
0
6
CONTINUOUS
0
ENDTAB
0
TABLE
2
STYLE
5
3
100
AcDbSymbolTable
70
1
0
STYLE
5
11
100
AcDbSymbolTableRecord
100
AcDbTextStyleTableRecord
2
STANDARD
70
0
0
ENDTAB
0
TABLE
2
VIEW
5
6
100
AcDbSymbolTable
70
0
0
ENDTAB
0
TABLE
2
UCS
5
7
100
AcDbSymbolTable
70
0
0
ENDTAB
0
TABLE
2
APPID
5
9
100
AcDbSymbolTable
70
2
0
APPID
5
12
100
AcDbSymbolTableRecord
100
AcDbRegAppTableRecord
2
ACAD
70
0
0
ENDTAB
0
TABLE
2
DIMSTYLE
5
A
100
AcDbSymbolTable
70
1
0
ENDTAB
0
TABLE
2
BLOCK_RECORD
5
1
100
AcDbSymbolTable
70
1
0
BLOCK_RECORD
5
1F
100
AcDbSymbolTableRecord
100
AcDbBlockTableRecord
2
*MODEL_SPACE
0
BLOCK_RECORD
5
1B
100
AcDbSymbolTableRecord
100
AcDbBlockTableRecord
2
*PAPER_SPACE
0
ENDTAB
0
ENDSEC
0
SECTION
2
BLOCKS
0
BLOCK
5
20
100
AcDbEntity
100
AcDbBlockBegin
2
*MODEL_SPACE
0
ENDBLK
5
21
100
AcDbEntity
100
AcDbBlockEnd
0
BLOCK
5
1C
100
AcDbEntity
100
AcDbBlockBegin
2
*PAPER_SPACE
0
ENDBLK
5
1D
100
AcDbEntity
100
AcDbBlockEnd
0
ENDSEC
0
SECTION
2
ENTITIES
0
LWPOLYLINE
5
100
100
AcDbEntity
8
0
100
AcDbPolyline
90
37
70
1
43
0.0
10
-12.789999999999999
20
-2.3450000000000006
42
-0.41421356237309825
10
-12.690000000000001
20
-2.2450000000000014
10
3.6099999999999999
20
-2.2450000000000001
10
3.6099999999999999
20
-0.4450000000000004
10
2.7099999999999991
20
-0.44500000000000012
42
-0.41421356237309753
10
2.609999999999999
20
-0.34500000000000031
10
2.609999999999999
20
0.23558614619606455
10
1.7292893218813445
20
1.1162968243147191
42
-0.19891236737965859
10
1.6999999999999993
20
1.1870075024333737
10
1.6999999999999993
20
3.4550000000000001
10
2.1599999999999997
20
3.4550000000000001
10
2.1599999999999988
20
1.3775457411249974
42
0.19891236737965756
10
2.1892893218813447
20
1.3068350630063423
10
2.7311243848876843
20
0.76500000000000346
10
5.7099999999999991
20
0.76500000000000012
42
-0.4142135623730967
10
5.8099999999999996
20
0.66499999999999948
10
5.8099999999999996
20
-0.34500000000000031
42
-0.41421356237309603
10
5.7099999999999991
20
-0.44500000000000067
10
4.8099999999999987
20
-0.4450000000000004
10
4.8099999999999987
20
-1.2450000000000003
10
10.609999999999999
20
-1.2450000000000006
10
10.609999999999999
20
1.4249999999999996
10
2.7099999999999991
20
1.4249999999999996
42
-0.41421356237309176
10
2.609999999999999
20
1.5249999999999997
10
2.609999999999999
20
3.4550000000000001
10
3.8099999999999978
20
3.4550000000000001
10
3.8099999999999978
20
2.7149999999999999
10
4.6099999999999985
20
2.7149999999999999
10
4.6099999999999985
20
3.4550000000000001
10
5.8099999999999996
20
3.4550000000000001
10
5.8099999999999996
20
2.7149999999999999
10
12.69
20
2.7149999999999981
42
-0.41421356237310319
10
12.789999999999999
20
2.6149999999999993
10
12.790000000000001
20
-3.3550000000000004
42
-0.4142135623730967
10
12.690000000000001
20
-3.4550000000000001
10
-12.690000000000001
20
-3.4550000000000001
42
-0.41421356237308854
10
-12.789999999999999
20
-3.3550000000000004
0
LWPOLYLINE
5
101
100
AcDbEntity
8
0
100
AcDbPolyline
90
37
70
1
43
0.0
10
-12.789999999999999
20
-2.3450000000000006
42
-0.41421356237309825
10
-12.690000000000001
20
-2.2450000000000014
10
3.6099999999999999
20
-2.2450000000000001
10
3.6099999999999999
20
-0.4450000000000004
10
2.7099999999999991
20
-0.44500000000000012
42
-0.41421356237309725
10
2.609999999999999
20
-0.34500000000000036
10
2.609999999999999
20
0.23558614619606455
10
1.7292893218813441
20
1.1162968243147187
42
-0.19891236737965776
10
1.6999999999999988
20
1.1870075024333735
10
1.6999999999999988
20
3.4550000000000001
10
2.1599999999999988
20
3.4550000000000001
10
2.1599999999999988
20
1.3775457411249974
42
0.19891236737965834
10
2.1892893218813443
20
1.3068350630063423
10
2.7311243848876838
20
0.76500000000000346
10
5.7099999999999991
20
0.76500000000000012
42
-0.41421356237309631
10
5.8099999999999996
20
0.66499999999999959
10
5.8099999999999996
20
-0.34500000000000031
42
-0.41421356237309603
10
5.7099999999999991
20
-0.44500000000000073
10
4.8099999999999996
20
-0.4450000000000004
10
4.8099999999999996
20
-1.2450000000000003
10
10.609999999999999
20
-1.2450000000000003
10
10.609999999999999
20
1.4249999999999998
10
2.7099999999999991
20
1.4249999999999996
42
-0.41421356237309176
10
2.609999999999999
20
1.5249999999999997
10
2.609999999999999
20
3.4550000000000001
10
3.8099999999999987
20
3.4550000000000001
10
3.8099999999999987
20
2.7149999999999999
10
4.6099999999999985
20
2.7149999999999999
10
4.6099999999999985
20
3.4550000000000001
10
5.8099999999999987
20
3.4550000000000001
10
5.8099999999999987
20
2.7149999999999999
10
12.69
20
2.7150000000000003
42
-0.41421356237310319
10
12.790000000000001
20
2.6149999999999993
10
12.790000000000001
20
-3.3550000000000004
42
-0.41421356237310319
10
12.69
20
-3.4550000000000001
10
-12.690000000000003
20
-3.4550000000000001
42
-0.41421356237308204
10
-12.789999999999999
20
-3.3550000000000004
0
ENDSEC
0
SECTION
2
OBJECTS
0
DICTIONARY
5
C
100
AcDbDictionary
3
ACAD_GROUP
350
D
3
ACAD_MLINESTYLE
350
17
0
DICTIONARY
5
D
100
AcDbDictionary
0
DICTIONARY
5
1A
330
C
100
AcDbDictionary
0
DICTIONARY
5
17
100
AcDbDictionary
0
ENDSEC
0
EOF
